<svg aria-hidden="true" style="position: absolute; width: 0; height: 0; overflow: hidden;" version="1.1" xmlns="http://www.w3.org/2000/svg" xmlns:xlink="http://www.w3.org/1999/xlink">
<defs>
<symbol id="wosi-envelope-o" viewBox="0 0 28 28">
<title>envelope-o</title>
<path d="M26 23.5v-12c-0.328 0.375-0.688 0.719-1.078 1.031-2.234 1.719-4.484 3.469-6.656 5.281-1.172 0.984-2.625 2.188-4.25 2.188h-0.031c-1.625 0-3.078-1.203-4.25-2.188-2.172-1.813-4.422-3.563-6.656-5.281-0.391-0.313-0.75-0.656-1.078-1.031v12c0 0.266 0.234 0.5 0.5 0.5h23c0.266 0 0.5-0.234 0.5-0.5zM26 7.078c0-0.391 0.094-1.078-0.5-1.078h-23c-0.266 0-0.5 0.234-0.5 0.5 0 1.781 0.891 3.328 2.297 4.438 2.094 1.641 4.188 3.297 6.266 4.953 0.828 0.672 2.328 2.109 3.422 2.109h0.031c1.094 0 2.594-1.437 3.422-2.109 2.078-1.656 4.172-3.313 6.266-4.953 1.016-0.797 2.297-2.531 2.297-3.859zM28 6.5v17c0 1.375-1.125 2.5-2.5 2.5h-23c-1.375 0-2.5-1.125-2.5-2.5v-17c0-1.375 1.125-2.5 2.5-2.5h23c1.375 0 2.5 1.125 2.5 2.5z"></path>
</symbol>
<symbol id="wosi-twitter-square" viewBox="0 0 24 28">
<title>twitter-square</title>
<path d="M20 9.531c-0.594 0.266-1.219 0.438-1.891 0.531 0.688-0.406 1.203-1.062 1.453-1.828-0.641 0.375-1.344 0.656-2.094 0.797-0.594-0.641-1.453-1.031-2.391-1.031-1.813 0-3.281 1.469-3.281 3.281 0 0.25 0.016 0.516 0.078 0.75-2.734-0.141-5.156-1.437-6.781-3.437-0.281 0.484-0.453 1.062-0.453 1.656 0 1.141 0.531 2.141 1.422 2.734-0.547-0.016-1.062-0.172-1.563-0.406v0.031c0 1.594 1.203 2.922 2.703 3.219-0.281 0.078-0.5 0.125-0.797 0.125-0.203 0-0.406-0.031-0.609-0.063 0.422 1.297 1.625 2.25 3.063 2.281-1.125 0.875-2.531 1.406-4.078 1.406-0.266 0-0.531-0.016-0.781-0.047 1.453 0.922 3.172 1.469 5.031 1.469 6.031 0 9.344-5 9.344-9.344 0-0.141 0-0.281-0.016-0.422 0.641-0.453 1.203-1.031 1.641-1.703zM24 6.5v15c0 2.484-2.016 4.5-4.5 4.5h-15c-2.484 0-4.5-2.016-4.5-4.5v-15c0-2.484 2.016-4.5 4.5-4.5h15c2.484 0 4.5 2.016 4.5 4.5z"></path>
</symbol>
<symbol id="wosi-facebook-square" viewBox="0 0 24 28">
<title>facebook-square</title>
<path d="M19.5 2c2.484 0 4.5 2.016 4.5 4.5v15c0 2.484-2.016 4.5-4.5 4.5h-2.938v-9.297h3.109l0.469-3.625h-3.578v-2.312c0-1.047 0.281-1.75 1.797-1.75l1.906-0.016v-3.234c-0.328-0.047-1.469-0.141-2.781-0.141-2.766 0-4.672 1.687-4.672 4.781v2.672h-3.125v3.625h3.125v9.297h-8.313c-2.484 0-4.5-2.016-4.5-4.5v-15c0-2.484 2.016-4.5 4.5-4.5h15z"></path>
</symbol>
<symbol id="wosi-linkedin-square" viewBox="0 0 24 28">
<title>linkedin-square</title>
<path d="M3.703 22.094h3.609v-10.844h-3.609v10.844zM7.547 7.906c-0.016-1.062-0.781-1.875-2.016-1.875s-2.047 0.812-2.047 1.875c0 1.031 0.781 1.875 2 1.875h0.016c1.266 0 2.047-0.844 2.047-1.875zM16.688 22.094h3.609v-6.219c0-3.328-1.781-4.875-4.156-4.875-1.937 0-2.797 1.078-3.266 1.828h0.031v-1.578h-3.609s0.047 1.016 0 10.844v0h3.609v-6.062c0-0.313 0.016-0.641 0.109-0.875 0.266-0.641 0.859-1.313 1.859-1.313 1.297 0 1.813 0.984 1.813 2.453v5.797zM24 6.5v15c0 2.484-2.016 4.5-4.5 4.5h-15c-2.484 0-4.5-2.016-4.5-4.5v-15c0-2.484 2.016-4.5 4.5-4.5h15c2.484 0 4.5 2.016 4.5 4.5z"></path>
</symbol>
<symbol id="wosi-github-square" viewBox="0 0 24 28">
<title>github-square</title>
<path d="M8.109 18.75v0c0.031-0.047 0.016-0.141-0.047-0.203-0.078-0.063-0.172-0.078-0.219-0.031-0.031 0.047-0.016 0.141 0.047 0.203 0.078 0.063 0.172 0.078 0.219 0.031zM7.672 18.109c-0.047-0.063-0.125-0.094-0.187-0.063-0.047 0.031-0.047 0.125 0 0.187 0.063 0.078 0.141 0.109 0.187 0.078v0c0.047-0.031 0.047-0.125 0-0.203zM7.031 17.484v0c0.016-0.031-0.016-0.094-0.078-0.125-0.047-0.016-0.109-0.016-0.125 0.031-0.031 0.047 0 0.094 0.063 0.125 0.063 0.016 0.125 0.016 0.141-0.031zM7.359 17.844v0c0.031-0.031 0.031-0.109-0.031-0.156-0.047-0.063-0.125-0.078-0.156-0.047-0.047 0.047-0.031 0.109 0.016 0.172 0.047 0.047 0.125 0.078 0.172 0.031zM8.703 19.016v0c0.016-0.063-0.047-0.141-0.141-0.172s-0.172 0-0.203 0.063c-0.016 0.063 0.047 0.141 0.141 0.172s0.172 0 0.203-0.063zM9.359 19.063v0c0-0.063-0.078-0.125-0.187-0.125-0.094 0-0.156 0.063-0.156 0.125s0.078 0.125 0.172 0.125 0.172-0.063 0.172-0.125zM9.969 18.953v0c-0.016-0.063-0.109-0.094-0.203-0.078s-0.156 0.078-0.141 0.141 0.094 0.109 0.187 0.094 0.156-0.094 0.156-0.156zM20 14c0-4.422-3.578-8-8-8s-8 3.578-8 8c0 3.531 2.297 6.531 5.469 7.594 0.406 0.078 0.547-0.172 0.547-0.391 0-0.187 0-0.812-0.016-1.484 0 0-2.219 0.484-2.688-0.953 0 0-0.359-0.922-0.891-1.156 0 0-0.719-0.5 0.063-0.5 0 0 0.781 0.063 1.219 0.828 0.703 1.234 1.875 0.875 2.328 0.672 0.078-0.516 0.281-0.875 0.516-1.078-1.781-0.203-3.656-0.891-3.656-3.953 0-0.875 0.313-1.578 0.828-2.141-0.078-0.203-0.359-1.016 0.078-2.125 0.672-0.203 2.203 0.828 2.203 0.828 0.641-0.187 1.313-0.266 2-0.266s1.359 0.078 2 0.266c0 0 1.531-1.031 2.203-0.828 0.438 1.109 0.156 1.922 0.078 2.125 0.516 0.562 0.828 1.266 0.828 2.141 0 3.078-1.875 3.75-3.656 3.953 0.281 0.25 0.547 0.734 0.547 1.484 0 1.062-0.016 1.922-0.016 2.188 0 0.219 0.141 0.469 0.547 0.391 3.172-1.062 5.469-4.062 5.469-7.594zM24 6.5v15c0 2.484-2.016 4.5-4.5 4.5h-15c-2.484 0-4.5-2.016-4.5-4.5v-15c0-2.484 2.016-4.5 4.5-4.5h15c2.484 0 4.5 2.016 4.5 4.5z"></path>
</symbol>
<symbol id="wosi-phone" viewBox="0 0 22 28">
<title>phone</title>
<path d="M22 19.375c0 0.562-0.25 1.656-0.484 2.172-0.328 0.766-1.203 1.266-1.906 1.656-0.922 0.5-1.859 0.797-2.906 0.797-1.453 0-2.766-0.594-4.094-1.078-0.953-0.344-1.875-0.766-2.734-1.297-2.656-1.641-5.859-4.844-7.5-7.5-0.531-0.859-0.953-1.781-1.297-2.734-0.484-1.328-1.078-2.641-1.078-4.094 0-1.047 0.297-1.984 0.797-2.906 0.391-0.703 0.891-1.578 1.656-1.906 0.516-0.234 1.609-0.484 2.172-0.484 0.109 0 0.219 0 0.328 0.047 0.328 0.109 0.672 0.875 0.828 1.188 0.5 0.891 0.984 1.797 1.5 2.672 0.25 0.406 0.719 0.906 0.719 1.391 0 0.953-2.828 2.344-2.828 3.187 0 0.422 0.391 0.969 0.609 1.344 1.578 2.844 3.547 4.813 6.391 6.391 0.375 0.219 0.922 0.609 1.344 0.609 0.844 0 2.234-2.828 3.187-2.828 0.484 0 0.984 0.469 1.391 0.719 0.875 0.516 1.781 1 2.672 1.5 0.313 0.156 1.078 0.5 1.188 0.828 0.047 0.109 0.047 0.219 0.047 0.328z"></path>
</symbol>
<symbol id="wosi-phone-square" viewBox="0 0 24 28">
<title>phone-square</title>
<path d="M20 18.641c0-0.078 0-0.172-0.031-0.25-0.094-0.281-2.375-1.437-2.812-1.687-0.297-0.172-0.656-0.516-1.016-0.516-0.688 0-1.703 2.047-2.312 2.047-0.313 0-0.703-0.281-0.984-0.438-2.063-1.156-3.484-2.578-4.641-4.641-0.156-0.281-0.438-0.672-0.438-0.984 0-0.609 2.047-1.625 2.047-2.312 0-0.359-0.344-0.719-0.516-1.016-0.25-0.438-1.406-2.719-1.687-2.812-0.078-0.031-0.172-0.031-0.25-0.031-0.406 0-1.203 0.187-1.578 0.344-1.031 0.469-1.781 2.438-1.781 3.516 0 1.047 0.422 2 0.781 2.969 1.25 3.422 4.969 7.141 8.391 8.391 0.969 0.359 1.922 0.781 2.969 0.781 1.078 0 3.047-0.75 3.516-1.781 0.156-0.375 0.344-1.172 0.344-1.578zM24 6.5v15c0 2.484-2.016 4.5-4.5 4.5h-15c-2.484 0-4.5-2.016-4.5-4.5v-15c0-2.484 2.016-4.5 4.5-4.5h15c2.484 0 4.5 2.016 4.5 4.5z"></path>
</symbol>
<symbol id="wosi-twitter" viewBox="0 0 26 28">
<title>twitter</title>
<path d="M25.312 6.375c-0.688 1-1.547 1.891-2.531 2.609 0.016 0.219 0.016 0.438 0.016 0.656 0 6.672-5.078 14.359-14.359 14.359-2.859 0-5.516-0.828-7.75-2.266 0.406 0.047 0.797 0.063 1.219 0.063 2.359 0 4.531-0.797 6.266-2.156-2.219-0.047-4.078-1.5-4.719-3.5 0.313 0.047 0.625 0.078 0.953 0.078 0.453 0 0.906-0.063 1.328-0.172-2.312-0.469-4.047-2.5-4.047-4.953v-0.063c0.672 0.375 1.453 0.609 2.281 0.641-1.359-0.906-2.25-2.453-2.25-4.203 0-0.938 0.25-1.797 0.688-2.547 2.484 3.062 6.219 5.063 10.406 5.281-0.078-0.375-0.125-0.766-0.125-1.156 0-2.781 2.25-5.047 5.047-5.047 1.453 0 2.766 0.609 3.687 1.594 1.141-0.219 2.234-0.641 3.203-1.219-0.375 1.172-1.172 2.156-2.219 2.781 1.016-0.109 2-0.391 2.906-0.781z"></path>
</symbol>
<symbol id="wosi-facebook" viewBox="0 0 16 28">
<title>facebook</title>
<path d="M14.984 0.187v4.125h-2.453c-1.922 0-2.281 0.922-2.281 2.25v2.953h4.578l-0.609 4.625h-3.969v11.859h-4.781v-11.859h-3.984v-4.625h3.984v-3.406c0-3.953 2.422-6.109 5.953-6.109 1.687 0 3.141 0.125 3.563 0.187z"></path>
</symbol>
<symbol id="wosi-github" viewBox="0 0 24 28">
<title>github</title>
<path d="M12 2c6.625 0 12 5.375 12 12 0 5.297-3.437 9.797-8.203 11.391-0.609 0.109-0.828-0.266-0.828-0.578 0-0.391 0.016-1.687 0.016-3.297 0-1.125-0.375-1.844-0.812-2.219 2.672-0.297 5.484-1.313 5.484-5.922 0-1.313-0.469-2.375-1.234-3.219 0.125-0.313 0.531-1.531-0.125-3.187-1-0.313-3.297 1.234-3.297 1.234-0.953-0.266-1.984-0.406-3-0.406s-2.047 0.141-3 0.406c0 0-2.297-1.547-3.297-1.234-0.656 1.656-0.25 2.875-0.125 3.187-0.766 0.844-1.234 1.906-1.234 3.219 0 4.594 2.797 5.625 5.469 5.922-0.344 0.313-0.656 0.844-0.766 1.609-0.688 0.313-2.438 0.844-3.484-1-0.656-1.141-1.844-1.234-1.844-1.234-1.172-0.016-0.078 0.734-0.078 0.734 0.781 0.359 1.328 1.75 1.328 1.75 0.703 2.141 4.047 1.422 4.047 1.422 0 1 0.016 1.937 0.016 2.234 0 0.313-0.219 0.688-0.828 0.578-4.766-1.594-8.203-6.094-8.203-11.391 0-6.625 5.375-12 12-12zM4.547 19.234c0.031-0.063-0.016-0.141-0.109-0.187-0.094-0.031-0.172-0.016-0.203 0.031-0.031 0.063 0.016 0.141 0.109 0.187 0.078 0.047 0.172 0.031 0.203-0.031zM5.031 19.766c0.063-0.047 0.047-0.156-0.031-0.25-0.078-0.078-0.187-0.109-0.25-0.047-0.063 0.047-0.047 0.156 0.031 0.25 0.078 0.078 0.187 0.109 0.25 0.047zM5.5 20.469c0.078-0.063 0.078-0.187 0-0.297-0.063-0.109-0.187-0.156-0.266-0.094-0.078 0.047-0.078 0.172 0 0.281s0.203 0.156 0.266 0.109zM6.156 21.125c0.063-0.063 0.031-0.203-0.063-0.297-0.109-0.109-0.25-0.125-0.313-0.047-0.078 0.063-0.047 0.203 0.063 0.297 0.109 0.109 0.25 0.125 0.313 0.047zM7.047 21.516c0.031-0.094-0.063-0.203-0.203-0.25-0.125-0.031-0.266 0.016-0.297 0.109s0.063 0.203 0.203 0.234c0.125 0.047 0.266 0 0.297-0.094zM8.031 21.594c0-0.109-0.125-0.187-0.266-0.172-0.141 0-0.25 0.078-0.25 0.172 0 0.109 0.109 0.187 0.266 0.172 0.141 0 0.25-0.078 0.25-0.172zM8.937 21.438c-0.016-0.094-0.141-0.156-0.281-0.141-0.141 0.031-0.234 0.125-0.219 0.234 0.016 0.094 0.141 0.156 0.281 0.125s0.234-0.125 0.219-0.219z"></path>
</symbol>
<symbol id="wosi-feed" viewBox="0 0 22 28">
<title>feed</title>
<path d="M6 21c0 1.656-1.344 3-3 3s-3-1.344-3-3 1.344-3 3-3 3 1.344 3 3zM14 22.922c0.016 0.281-0.078 0.547-0.266 0.75-0.187 0.219-0.453 0.328-0.734 0.328h-2.109c-0.516 0-0.938-0.391-0.984-0.906-0.453-4.766-4.234-8.547-9-9-0.516-0.047-0.906-0.469-0.906-0.984v-2.109c0-0.281 0.109-0.547 0.328-0.734 0.172-0.172 0.422-0.266 0.672-0.266h0.078c3.328 0.266 6.469 1.719 8.828 4.094 2.375 2.359 3.828 5.5 4.094 8.828zM22 22.953c0.016 0.266-0.078 0.531-0.281 0.734-0.187 0.203-0.438 0.313-0.719 0.313h-2.234c-0.531 0-0.969-0.406-1-0.938-0.516-9.078-7.75-16.312-16.828-16.844-0.531-0.031-0.938-0.469-0.938-0.984v-2.234c0-0.281 0.109-0.531 0.313-0.719 0.187-0.187 0.438-0.281 0.688-0.281h0.047c5.469 0.281 10.609 2.578 14.484 6.469 3.891 3.875 6.188 9.016 6.469 14.484z"></path>
</symbol>
<symbol id="wosi-pinterest" viewBox="0 0 24 28">
<title>pinterest</title>
<path d="M24 14c0 6.625-5.375 12-12 12-1.188 0-2.312-0.172-3.406-0.5 0.453-0.719 0.969-1.641 1.219-2.562 0 0 0.141-0.531 0.844-3.297 0.406 0.797 1.625 1.5 2.922 1.5 3.859 0 6.484-3.516 6.484-8.234 0-3.547-3.016-6.875-7.609-6.875-5.688 0-8.563 4.094-8.563 7.5 0 2.063 0.781 3.906 2.453 4.594 0.266 0.109 0.516 0 0.594-0.313 0.063-0.203 0.187-0.734 0.25-0.953 0.078-0.313 0.047-0.406-0.172-0.672-0.484-0.578-0.797-1.313-0.797-2.359 0-3.031 2.266-5.75 5.906-5.75 3.219 0 5 1.969 5 4.609 0 3.453-1.531 6.375-3.813 6.375-1.25 0-2.188-1.031-1.891-2.312 0.359-1.516 1.062-3.156 1.062-4.25 0-0.984-0.531-1.813-1.625-1.813-1.281 0-2.312 1.328-2.312 3.109 0 0 0 1.141 0.391 1.906-1.313 5.563-1.547 6.531-1.547 6.531-0.219 0.906-0.234 1.922-0.203 2.766-4.234-1.859-7.187-6.078-7.187-11 0-6.625 5.375-12 12-12s12 5.375 12 12z"></path>
</symbol>
<symbol id="wosi-pinterest-square" viewBox="0 0 24 28">
<title>pinterest-square</title>
<path d="M19.5 2c2.484 0 4.5 2.016 4.5 4.5v15c0 2.484-2.016 4.5-4.5 4.5h-11.328c0.516-0.734 1.359-2 1.687-3.281 0 0 0.141-0.531 0.828-3.266 0.422 0.797 1.625 1.484 2.906 1.484 3.813 0 6.406-3.484 6.406-8.141 0-3.516-2.984-6.797-7.516-6.797-5.641 0-8.484 4.047-8.484 7.422 0 2.031 0.781 3.844 2.438 4.531 0.266 0.109 0.516 0 0.594-0.297 0.047-0.203 0.172-0.734 0.234-0.953 0.078-0.297 0.047-0.406-0.172-0.656-0.469-0.578-0.781-1.297-0.781-2.344 0-3 2.25-5.672 5.844-5.672 3.187 0 4.937 1.937 4.937 4.547 0 3.422-1.516 6.312-3.766 6.312-1.234 0-2.172-1.031-1.875-2.297 0.359-1.5 1.047-3.125 1.047-4.203 0-0.969-0.516-1.781-1.594-1.781-1.266 0-2.281 1.313-2.281 3.063 0 0 0 1.125 0.375 1.891-1.297 5.5-1.531 6.469-1.531 6.469-0.344 1.437-0.203 3.109-0.109 3.969h-2.859c-2.484 0-4.5-2.016-4.5-4.5v-15c0-2.484 2.016-4.5 4.5-4.5h15z"></path>
</symbol>
<symbol id="wosi-google-plus-square" viewBox="0 0 24 28">
<title>google-plus-square</title>
<path d="M14.328 14.141c0-0.391-0.047-0.703-0.094-1h-5.656v2.063h3.391c-0.125 0.875-1.016 2.578-3.391 2.578-2.063 0-3.734-1.687-3.734-3.781s1.672-3.781 3.734-3.781c1.156 0 1.937 0.484 2.391 0.922l1.625-1.578c-1.047-0.969-2.406-1.563-4.016-1.563-3.328 0-6 2.688-6 6s2.672 6 6 6c3.453 0 5.75-2.438 5.75-5.859zM19.719 14.859h1.703v-1.719h-1.703v-1.719h-1.719v1.719h-1.719v1.719h1.719v1.719h1.719v-1.719zM24 6.5v15c0 2.484-2.016 4.5-4.5 4.5h-15c-2.484 0-4.5-2.016-4.5-4.5v-15c0-2.484 2.016-4.5 4.5-4.5h15c2.484 0 4.5 2.016 4.5 4.5z"></path>
</symbol>
<symbol id="wosi-google-plus" viewBox="0 0 36 28">
<title>google-plus</title>
<path d="M22.453 14.266c0 6.547-4.391 11.188-11 11.188-6.328 0-11.453-5.125-11.453-11.453s5.125-11.453 11.453-11.453c3.094 0 5.672 1.125 7.672 3l-3.109 2.984c-0.844-0.812-2.328-1.766-4.562-1.766-3.906 0-7.094 3.234-7.094 7.234s3.187 7.234 7.094 7.234c4.531 0 6.234-3.266 6.5-4.937h-6.5v-3.938h10.813c0.109 0.578 0.187 1.156 0.187 1.906zM36 12.359v3.281h-3.266v3.266h-3.281v-3.266h-3.266v-3.281h3.266v-3.266h3.281v3.266h3.266z"></path>
</symbol>
<symbol id="wosi-linkedin" viewBox="0 0 24 28">
<title>linkedin</title>
<path d="M5.453 9.766v15.484h-5.156v-15.484h5.156zM5.781 4.984c0.016 1.484-1.109 2.672-2.906 2.672v0h-0.031c-1.734 0-2.844-1.188-2.844-2.672 0-1.516 1.156-2.672 2.906-2.672 1.766 0 2.859 1.156 2.875 2.672zM24 16.375v8.875h-5.141v-8.281c0-2.078-0.75-3.5-2.609-3.5-1.422 0-2.266 0.953-2.641 1.875-0.125 0.344-0.172 0.797-0.172 1.266v8.641h-5.141c0.063-14.031 0-15.484 0-15.484h5.141v2.25h-0.031c0.672-1.062 1.891-2.609 4.672-2.609 3.391 0 5.922 2.219 5.922 6.969z"></path>
</symbol>
<symbol id="wosi-rss-square" viewBox="0 0 24 28">
<title>rss-square</title>
<path d="M8 20c0-1.109-0.891-2-2-2s-2 0.891-2 2 0.891 2 2 2 2-0.891 2-2zM13.484 21.469c-0.266-4.844-4.109-8.687-8.953-8.953-0.141-0.016-0.281 0.047-0.375 0.141s-0.156 0.219-0.156 0.359v2c0 0.266 0.203 0.484 0.469 0.5 3.203 0.234 5.781 2.812 6.016 6.016 0.016 0.266 0.234 0.469 0.5 0.469h2c0.141 0 0.266-0.063 0.359-0.156s0.156-0.234 0.141-0.375zM19.484 21.484c-0.266-8.125-6.844-14.703-14.969-14.969-0.156-0.016-0.266 0.031-0.359 0.141-0.094 0.094-0.156 0.219-0.156 0.359v2c0 0.266 0.219 0.484 0.484 0.5 6.484 0.234 11.766 5.516 12 12 0.016 0.266 0.234 0.484 0.5 0.484h2c0.141 0 0.266-0.063 0.359-0.156 0.109-0.094 0.156-0.219 0.141-0.359zM24 6.5v15c0 2.484-2.016 4.5-4.5 4.5h-15c-2.484 0-4.5-2.016-4.5-4.5v-15c0-2.484 2.016-4.5 4.5-4.5h15c2.484 0 4.5 2.016 4.5 4.5z"></path>
</symbol>
<symbol id="wosi-youtube-square" viewBox="0 0 24 28">
<title>youtube-square</title>
<path d="M14.359 20.359v-2.453c0-0.516-0.156-0.781-0.453-0.781-0.172 0-0.344 0.078-0.516 0.25v3.5c0.172 0.172 0.344 0.25 0.516 0.25 0.297 0 0.453-0.25 0.453-0.766zM17.234 18.453h1.031v-0.531c0-0.531-0.172-0.797-0.516-0.797s-0.516 0.266-0.516 0.797v0.531zM8.313 14.297v1.094h-1.25v6.609h-1.156v-6.609h-1.219v-1.094h3.625zM11.453 16.266v5.734h-1.047v-0.625c-0.406 0.469-0.797 0.703-1.188 0.703-0.328 0-0.562-0.141-0.656-0.438-0.063-0.172-0.094-0.438-0.094-0.844v-4.531h1.031v4.219c0 0.234 0 0.375 0.016 0.406 0.016 0.156 0.094 0.234 0.234 0.234 0.219 0 0.422-0.156 0.656-0.484v-4.375h1.047zM15.391 18v2.281c0 0.516-0.031 0.906-0.109 1.141-0.125 0.438-0.406 0.656-0.828 0.656-0.359 0-0.719-0.219-1.062-0.641v0.562h-1.047v-7.703h1.047v2.516c0.328-0.406 0.688-0.625 1.062-0.625 0.422 0 0.703 0.219 0.828 0.656 0.078 0.234 0.109 0.609 0.109 1.156zM19.313 20.016v0.141c0 0.344-0.016 0.562-0.031 0.672-0.031 0.234-0.109 0.438-0.234 0.625-0.281 0.422-0.719 0.625-1.25 0.625-0.547 0-0.969-0.203-1.266-0.594-0.219-0.281-0.328-0.734-0.328-1.344v-2.016c0-0.609 0.094-1.047 0.313-1.344 0.297-0.391 0.719-0.594 1.25-0.594 0.516 0 0.938 0.203 1.219 0.594 0.219 0.297 0.328 0.734 0.328 1.344v1.188h-2.078v1.016c0 0.531 0.172 0.797 0.531 0.797 0.25 0 0.406-0.141 0.469-0.406 0-0.063 0.016-0.297 0.016-0.703h1.062zM12.266 7.141v2.438c0 0.531-0.172 0.797-0.5 0.797-0.344 0-0.5-0.266-0.5-0.797v-2.438c0-0.531 0.156-0.812 0.5-0.812 0.328 0 0.5 0.281 0.5 0.812zM20.594 18.281v0c0-1.344 0-2.766-0.297-4.062-0.219-0.922-0.969-1.594-1.859-1.687-2.125-0.234-4.281-0.234-6.438-0.234-2.141 0-4.297 0-6.422 0.234-0.906 0.094-1.656 0.766-1.859 1.687-0.297 1.297-0.313 2.719-0.313 4.062v0c0 1.328 0 2.75 0.313 4.062 0.203 0.906 0.953 1.578 1.844 1.687 2.141 0.234 4.297 0.234 6.438 0.234s4.297 0 6.438-0.234c0.891-0.109 1.641-0.781 1.844-1.687 0.313-1.313 0.313-2.734 0.313-4.062zM8.797 8.109l1.406-4.625h-1.172l-0.797 3.047-0.828-3.047h-1.219c0.234 0.719 0.5 1.437 0.734 2.156 0.375 1.094 0.609 1.906 0.719 2.469v3.141h1.156v-3.141zM13.312 9.375v-2.031c0-0.609-0.109-1.062-0.328-1.359-0.297-0.391-0.703-0.594-1.219-0.594-0.531 0-0.938 0.203-1.219 0.594-0.219 0.297-0.328 0.75-0.328 1.359v2.031c0 0.609 0.109 1.062 0.328 1.359 0.281 0.391 0.688 0.594 1.219 0.594 0.516 0 0.922-0.203 1.219-0.594 0.219-0.281 0.328-0.75 0.328-1.359zM16.141 11.25h1.047v-5.781h-1.047v4.422c-0.234 0.328-0.453 0.484-0.656 0.484-0.141 0-0.234-0.078-0.25-0.25-0.016-0.031-0.016-0.156-0.016-0.406v-4.25h-1.047v4.578c0 0.406 0.031 0.672 0.094 0.859 0.109 0.281 0.344 0.422 0.672 0.422 0.391 0 0.781-0.234 1.203-0.703v0.625zM24 6.5v15c0 2.484-2.016 4.5-4.5 4.5h-15c-2.484 0-4.5-2.016-4.5-4.5v-15c0-2.484 2.016-4.5 4.5-4.5h15c2.484 0 4.5 2.016 4.5 4.5z"></path>
</symbol>
<symbol id="wosi-youtube" viewBox="0 0 24 28">
<title>youtube</title>
<path d="M15.172 19.437v3.297c0 0.703-0.203 1.047-0.609 1.047-0.234 0-0.469-0.109-0.703-0.344v-4.703c0.234-0.234 0.469-0.344 0.703-0.344 0.406 0 0.609 0.359 0.609 1.047zM20.453 19.453v0.719h-1.406v-0.719c0-0.703 0.234-1.062 0.703-1.062s0.703 0.359 0.703 1.062zM5.359 16.047h1.672v-1.469h-4.875v1.469h1.641v8.891h1.563v-8.891zM9.859 24.938h1.391v-7.719h-1.391v5.906c-0.313 0.438-0.609 0.656-0.891 0.656-0.187 0-0.297-0.109-0.328-0.328-0.016-0.047-0.016-0.219-0.016-0.547v-5.688h-1.391v6.109c0 0.547 0.047 0.906 0.125 1.141 0.125 0.391 0.453 0.578 0.906 0.578 0.5 0 1.031-0.313 1.594-0.953v0.844zM16.562 22.625v-3.078c0-0.719-0.031-1.234-0.141-1.547-0.172-0.578-0.562-0.875-1.109-0.875-0.516 0-1 0.281-1.453 0.844v-3.391h-1.391v10.359h1.391v-0.75c0.469 0.578 0.953 0.859 1.453 0.859 0.547 0 0.938-0.297 1.109-0.859 0.109-0.328 0.141-0.844 0.141-1.563zM21.844 22.469v-0.203h-1.422c0 0.562-0.016 0.875-0.031 0.953-0.078 0.375-0.281 0.562-0.625 0.562-0.484 0-0.719-0.359-0.719-1.078v-1.359h2.797v-1.609c0-0.828-0.141-1.422-0.422-1.813-0.406-0.531-0.953-0.797-1.656-0.797-0.719 0-1.266 0.266-1.672 0.797-0.297 0.391-0.438 0.984-0.438 1.813v2.703c0 0.828 0.156 1.437 0.453 1.813 0.406 0.531 0.953 0.797 1.687 0.797s1.313-0.281 1.687-0.828c0.172-0.25 0.297-0.531 0.328-0.844 0.031-0.141 0.031-0.453 0.031-0.906zM12.344 8.203v-3.281c0-0.719-0.203-1.078-0.672-1.078-0.453 0-0.672 0.359-0.672 1.078v3.281c0 0.719 0.219 1.094 0.672 1.094 0.469 0 0.672-0.375 0.672-1.094zM23.578 19.938c0 1.797-0.016 3.719-0.406 5.469-0.297 1.234-1.297 2.141-2.5 2.266-2.875 0.328-5.781 0.328-8.672 0.328s-5.797 0-8.672-0.328c-1.203-0.125-2.219-1.031-2.5-2.266-0.406-1.75-0.406-3.672-0.406-5.469v0c0-1.813 0.016-3.719 0.406-5.469 0.297-1.234 1.297-2.141 2.516-2.281 2.859-0.313 5.766-0.313 8.656-0.313s5.797 0 8.672 0.313c1.203 0.141 2.219 1.047 2.5 2.281 0.406 1.75 0.406 3.656 0.406 5.469zM7.984 0h1.594l-1.891 6.234v4.234h-1.563v-4.234c-0.141-0.766-0.453-1.859-0.953-3.313-0.344-0.969-0.688-1.953-1.016-2.922h1.656l1.109 4.109zM13.766 5.203v2.734c0 0.828-0.141 1.453-0.438 1.844-0.391 0.531-0.938 0.797-1.656 0.797-0.703 0-1.25-0.266-1.641-0.797-0.297-0.406-0.438-1.016-0.438-1.844v-2.734c0-0.828 0.141-1.437 0.438-1.828 0.391-0.531 0.938-0.797 1.641-0.797 0.719 0 1.266 0.266 1.656 0.797 0.297 0.391 0.438 1 0.438 1.828zM19 2.672v7.797h-1.422v-0.859c-0.562 0.656-1.094 0.969-1.609 0.969-0.453 0-0.781-0.187-0.922-0.578-0.078-0.234-0.125-0.609-0.125-1.172v-6.156h1.422v5.734c0 0.328 0 0.516 0.016 0.547 0.031 0.219 0.141 0.344 0.328 0.344 0.281 0 0.578-0.219 0.891-0.672v-5.953h1.422z"></path>
</symbol>
<symbol id="wosi-xing" viewBox="0 0 22 28">
<title>xing</title>
<path d="M9.328 10.422c0 0-0.156 0.266-4.016 7.125-0.203 0.344-0.469 0.719-1.016 0.719h-3.734c-0.219 0-0.391-0.109-0.484-0.266s-0.109-0.359 0-0.562l3.953-7c0.016 0 0.016 0 0-0.016l-2.516-4.359c-0.109-0.203-0.125-0.422-0.016-0.578 0.094-0.156 0.281-0.234 0.5-0.234h3.734c0.562 0 0.844 0.375 1.031 0.703 2.547 4.453 2.562 4.469 2.562 4.469zM21.922 0.391c0.109 0.156 0.109 0.375 0 0.578l-8.25 14.594c-0.016 0-0.016 0.016 0 0.016l5.25 9.609c0.109 0.203 0.109 0.422 0.016 0.578-0.109 0.156-0.281 0.234-0.5 0.234h-3.734c-0.562 0-0.859-0.375-1.031-0.703-5.297-9.703-5.297-9.719-5.297-9.719s0.266-0.469 8.297-14.719c0.203-0.359 0.438-0.703 1-0.703h3.766c0.219 0 0.391 0.078 0.484 0.234z"></path>
</symbol>
<symbol id="wosi-xing-square" viewBox="0 0 24 28">
<title>xing-square</title>
<path d="M10.703 11.953c0 0 0-0.016-1.969-3.469-0.156-0.25-0.375-0.531-0.812-0.531h-2.875c-0.187 0-0.328 0.063-0.406 0.172-0.078 0.125-0.063 0.297 0.016 0.453l1.953 3.375v0.016l-3.063 5.406c-0.094 0.156-0.078 0.313 0 0.438s0.203 0.203 0.375 0.203h2.891c0.422 0 0.641-0.297 0.781-0.562 3-5.297 3.109-5.5 3.109-5.5zM20.453 4.188c-0.078-0.125-0.203-0.187-0.375-0.187h-2.922c-0.422 0-0.609 0.266-0.766 0.547-6.219 11.031-6.422 11.391-6.422 11.391s0 0.016 4.094 7.516c0.141 0.25 0.359 0.547 0.812 0.547h2.875c0.172 0 0.313-0.063 0.391-0.187s0.078-0.281-0.016-0.438l-4.062-7.438v-0.016l6.391-11.297c0.078-0.156 0.078-0.313 0-0.438zM24 6.5v15c0 2.484-2.016 4.5-4.5 4.5h-15c-2.484 0-4.5-2.016-4.5-4.5v-15c0-2.484 2.016-4.5 4.5-4.5h15c2.484 0 4.5 2.016 4.5 4.5z"></path>
</symbol>
<symbol id="wosi-youtube-play" viewBox="0 0 28 28">
<title>youtube-play</title>
<path d="M11.109 17.625l7.562-3.906-7.562-3.953v7.859zM14 4.156c5.891 0 9.797 0.281 9.797 0.281 0.547 0.063 1.75 0.063 2.812 1.188 0 0 0.859 0.844 1.109 2.781 0.297 2.266 0.281 4.531 0.281 4.531v2.125s0.016 2.266-0.281 4.531c-0.25 1.922-1.109 2.781-1.109 2.781-1.062 1.109-2.266 1.109-2.812 1.172 0 0-3.906 0.297-9.797 0.297v0c-7.281-0.063-9.516-0.281-9.516-0.281-0.625-0.109-2.031-0.078-3.094-1.188 0 0-0.859-0.859-1.109-2.781-0.297-2.266-0.281-4.531-0.281-4.531v-2.125s-0.016-2.266 0.281-4.531c0.25-1.937 1.109-2.781 1.109-2.781 1.062-1.125 2.266-1.125 2.812-1.188 0 0 3.906-0.281 9.797-0.281v0z"></path>
</symbol>
<symbol id="wosi-instagram" viewBox="0 0 24 28">
<title>instagram</title>
<path d="M16 14c0-2.203-1.797-4-4-4s-4 1.797-4 4 1.797 4 4 4 4-1.797 4-4zM18.156 14c0 3.406-2.75 6.156-6.156 6.156s-6.156-2.75-6.156-6.156 2.75-6.156 6.156-6.156 6.156 2.75 6.156 6.156zM19.844 7.594c0 0.797-0.641 1.437-1.437 1.437s-1.437-0.641-1.437-1.437 0.641-1.437 1.437-1.437 1.437 0.641 1.437 1.437zM12 4.156c-1.75 0-5.5-0.141-7.078 0.484-0.547 0.219-0.953 0.484-1.375 0.906s-0.688 0.828-0.906 1.375c-0.625 1.578-0.484 5.328-0.484 7.078s-0.141 5.5 0.484 7.078c0.219 0.547 0.484 0.953 0.906 1.375s0.828 0.688 1.375 0.906c1.578 0.625 5.328 0.484 7.078 0.484s5.5 0.141 7.078-0.484c0.547-0.219 0.953-0.484 1.375-0.906s0.688-0.828 0.906-1.375c0.625-1.578 0.484-5.328 0.484-7.078s0.141-5.5-0.484-7.078c-0.219-0.547-0.484-0.953-0.906-1.375s-0.828-0.688-1.375-0.906c-1.578-0.625-5.328-0.484-7.078-0.484zM24 14c0 1.656 0.016 3.297-0.078 4.953-0.094 1.922-0.531 3.625-1.937 5.031s-3.109 1.844-5.031 1.937c-1.656 0.094-3.297 0.078-4.953 0.078s-3.297 0.016-4.953-0.078c-1.922-0.094-3.625-0.531-5.031-1.937s-1.844-3.109-1.937-5.031c-0.094-1.656-0.078-3.297-0.078-4.953s-0.016-3.297 0.078-4.953c0.094-1.922 0.531-3.625 1.937-5.031s3.109-1.844 5.031-1.937c1.656-0.094 3.297-0.078 4.953-0.078s3.297-0.016 4.953 0.078c1.922 0.094 3.625 0.531 5.031 1.937s1.844 3.109 1.937 5.031c0.094 1.656 0.078 3.297 0.078 4.953z"></path>
</symbol>
<symbol id="wosi-flickr" viewBox="0 0 24 28">
<title>flickr</title>
<path d="M19.5 2c2.484 0 4.5 2.016 4.5 4.5v15c0 2.484-2.016 4.5-4.5 4.5h-15c-2.484 0-4.5-2.016-4.5-4.5v-15c0-2.484 2.016-4.5 4.5-4.5h15zM10.906 14c0-1.828-1.484-3.313-3.313-3.313s-3.313 1.484-3.313 3.313 1.484 3.313 3.313 3.313 3.313-1.484 3.313-3.313zM19.719 14c0-1.828-1.484-3.313-3.313-3.313s-3.313 1.484-3.313 3.313 1.484 3.313 3.313 3.313 3.313-1.484 3.313-3.313z"></path>
</symbol>
<symbol id="wosi-tumblr" viewBox="0 0 17 28">
<title>tumblr</title>
<path d="M14.75 20.766l1.25 3.703c-0.469 0.703-2.594 1.5-4.5 1.531-5.672 0.094-7.812-4.031-7.812-6.937v-8.5h-2.625v-3.359c3.938-1.422 4.891-4.984 5.109-7.016 0.016-0.125 0.125-0.187 0.187-0.187h3.813v6.625h5.203v3.937h-5.219v8.094c0 1.094 0.406 2.609 2.5 2.562 0.688-0.016 1.609-0.219 2.094-0.453z"></path>
</symbol>
<symbol id="wosi-tumblr-square" viewBox="0 0 24 28">
<title>tumblr-square</title>
<path d="M17.75 22.828l-0.969-2.859c-0.375 0.187-1.078 0.344-1.609 0.344-1.594 0.047-1.922-1.109-1.922-1.969v-6.219h4.016v-3.031h-4v-5.094h-2.938c-0.047 0-0.125 0.047-0.141 0.156-0.172 1.547-0.906 4.297-3.938 5.391v2.578h2.031v6.531c0 2.234 1.641 5.422 6 5.344 1.469-0.031 3.109-0.641 3.469-1.172zM24 6.5v15c0 2.484-2.016 4.5-4.5 4.5h-15c-2.484 0-4.5-2.016-4.5-4.5v-15c0-2.484 2.016-4.5 4.5-4.5h15c2.484 0 4.5 2.016 4.5 4.5z"></path>
</symbol>
<symbol id="wosi-dribbble" viewBox="0 0 24 28">
<title>dribbble</title>
<path d="M16 23.438c-0.156-0.906-0.75-4.031-2.188-7.781-0.016 0-0.047 0.016-0.063 0.016 0 0-6.078 2.125-8.047 6.406-0.094-0.078-0.234-0.172-0.234-0.172 1.781 1.453 4.047 2.344 6.531 2.344 1.422 0 2.766-0.297 4-0.812zM13.109 13.953c-0.25-0.578-0.531-1.156-0.828-1.734-5.281 1.578-10.344 1.453-10.516 1.453-0.016 0.109-0.016 0.219-0.016 0.328 0 2.625 1 5.031 2.625 6.844v0c2.797-4.984 8.328-6.766 8.328-6.766 0.141-0.047 0.281-0.078 0.406-0.125zM11.438 10.641c-1.781-3.156-3.672-5.719-3.813-5.906-2.859 1.344-4.984 3.984-5.656 7.156 0.266 0 4.547 0.047 9.469-1.25zM22.125 15.625c-0.219-0.063-3.078-0.969-6.391-0.453 1.344 3.703 1.891 6.719 2 7.328 2.297-1.547 3.922-4.016 4.391-6.875zM9.547 4.047c-0.016 0-0.016 0-0.031 0.016 0 0 0.016-0.016 0.031-0.016zM18.766 6.312c-1.797-1.594-4.172-2.562-6.766-2.562-0.828 0-1.641 0.109-2.422 0.297 0.156 0.203 2.094 2.75 3.844 5.969 3.859-1.437 5.313-3.656 5.344-3.703zM22.25 13.891c-0.031-2.422-0.891-4.656-2.328-6.406-0.031 0.031-1.672 2.406-5.719 4.062 0.234 0.484 0.469 0.984 0.688 1.484 0.078 0.172 0.141 0.359 0.219 0.531 3.531-0.453 7.016 0.313 7.141 0.328zM24 14c0 6.625-5.375 12-12 12s-12-5.375-12-12 5.375-12 12-12 12 5.375 12 12z"></path>
</symbol>
<symbol id="wosi-vimeo-square" viewBox="0 0 24 28">
<title>vimeo-square</title>
<path d="M20.188 9.969c0.109-2.266-0.734-3.406-2.516-3.469-2.406-0.078-4.031 1.281-4.875 4.078 0.438-0.187 0.859-0.297 1.281-0.297 0.875 0 1.266 0.5 1.156 1.5-0.047 0.594-0.438 1.469-1.156 2.609-0.734 1.156-1.281 1.719-1.641 1.719-0.469 0-0.875-0.875-1.281-2.641-0.125-0.531-0.359-1.844-0.703-3.984-0.313-1.969-1.141-2.891-2.5-2.766-0.562 0.063-1.437 0.562-2.562 1.563-0.844 0.734-1.672 1.5-2.531 2.25l0.812 1.047c0.781-0.531 1.234-0.812 1.359-0.812 0.594 0 1.156 0.938 1.672 2.797 0.469 1.719 0.938 3.422 1.406 5.141 0.703 1.859 1.547 2.797 2.562 2.797 1.625 0 3.625-1.531 5.984-4.594 2.281-2.938 3.469-5.25 3.531-6.937zM24 6.5v15c0 2.484-2.016 4.5-4.5 4.5h-15c-2.484 0-4.5-2.016-4.5-4.5v-15c0-2.484 2.016-4.5 4.5-4.5h15c2.484 0 4.5 2.016 4.5 4.5z"></path>
</symbol>
<symbol id="wosi-stumbleupon-circle" viewBox="0 0 24 28">
<title>stumbleupon-circle</title>
<path d="M13.531 13.109l1.406-0.422v-0.969c0-1.656-1.406-2.984-3.063-2.984s-3.063 1.313-3.063 2.969v4.422c0 0.406-0.328 0.734-0.734 0.734s-0.719-0.328-0.719-0.734v-1.875h-2.359v1.906c0 1.703 1.375 3.063 3.078 3.063 1.672 0 3.063-1.344 3.063-3.016v-4.375c0-0.406 0.328-0.734 0.734-0.734 0.391 0 0.719 0.328 0.719 0.734v0.844zM18.734 16.156v-1.906h-2.344v1.969c0 0.406-0.328 0.734-0.734 0.734-0.391 0-0.719-0.328-0.719-0.734v-1.922l-1.406 0.406-0.938-0.438v1.922c0 1.672 1.391 3.031 3.078 3.031s3.063-1.359 3.063-3.063zM24 14c0 6.625-5.375 12-12 12s-12-5.375-12-12 5.375-12 12-12 12 5.375 12 12z"></path>
</symbol>
<symbol id="wosi-stumbleupon" viewBox="0 0 30 28">
<title>stumbleupon</title>
<path d="M16.594 11.125v-1.844c0-0.875-0.719-1.594-1.594-1.594s-1.594 0.719-1.594 1.594v9.562c0 3.656-3.031 6.609-6.703 6.609-3.703 0-6.703-3-6.703-6.703v-4.156h5.125v4.094c0 0.891 0.719 1.594 1.594 1.594s1.594-0.703 1.594-1.594v-9.688c0-3.578 3.063-6.453 6.687-6.453 3.641 0 6.687 2.891 6.687 6.5v2.125l-3.047 0.906zM24.875 14.594h5.125v4.156c0 3.703-3 6.703-6.703 6.703-3.687 0-6.703-2.969-6.703-6.641v-4.188l2.047 0.953 3.047-0.906v4.219c0 0.875 0.719 1.578 1.594 1.578s1.594-0.703 1.594-1.578v-4.297z"></path>
</symbol>
<symbol id="wosi-behance" viewBox="0 0 32 28">
<title>behance</title>
<path d="M28.875 5.297h-7.984v1.937h7.984v-1.937zM24.938 11.953c-1.875 0-3.125 1.172-3.25 3.047h6.375c-0.172-1.891-1.156-3.047-3.125-3.047zM25.188 21.094c1.188 0 2.719-0.641 3.094-1.859h3.453c-1.062 3.266-3.266 4.797-6.672 4.797-4.5 0-7.297-3.047-7.297-7.484 0-4.281 2.953-7.547 7.297-7.547 4.469 0 6.937 3.516 6.937 7.734 0 0.25-0.016 0.5-0.031 0.734h-10.281c0 2.281 1.203 3.625 3.5 3.625zM4.328 20.312h4.625c1.766 0 3.203-0.625 3.203-2.609 0-2.016-1.203-2.812-3.109-2.812h-4.719v5.422zM4.328 11.922h4.391c1.547 0 2.641-0.672 2.641-2.344 0-1.813-1.406-2.25-2.969-2.25h-4.062v4.594zM0 3.969h9.281c3.375 0 6.297 0.953 6.297 4.875 0 1.984-0.922 3.266-2.688 4.109 2.422 0.688 3.594 2.516 3.594 4.984 0 4-3.359 5.719-6.937 5.719h-9.547v-19.688z"></path>
</symbol>
<symbol id="wosi-behance-square" viewBox="0 0 24 28">
<title>behance-square</title>
<path d="M19.5 2c2.484 0 4.5 2.016 4.5 4.5v15c0 2.484-2.016 4.5-4.5 4.5h-15c-2.484 0-4.5-2.016-4.5-4.5v-15c0-2.484 2.016-4.5 4.5-4.5h15zM7.797 7.734h-5.797v12.297h5.969c2.234 0 4.328-1.062 4.328-3.563 0-1.547-0.734-2.688-2.234-3.125 1.094-0.531 1.672-1.328 1.672-2.562 0-2.453-1.828-3.047-3.937-3.047zM7.453 12.703h-2.75v-2.875h2.547c0.969 0 1.859 0.266 1.859 1.406 0 1.047-0.688 1.469-1.656 1.469zM7.594 17.938h-2.891v-3.391h2.953c1.188 0 1.937 0.516 1.937 1.766s-0.891 1.625-2 1.625zM17.75 18.438c-1.437 0-2.188-0.844-2.188-2.266h6.422c0.016-0.156 0.016-0.313 0.016-0.469 0-2.625-1.547-4.828-4.344-4.828-2.703 0-4.562 2.047-4.562 4.719 0 2.781 1.75 4.672 4.562 4.672 2.141 0 3.516-0.953 4.172-2.984h-2.156c-0.234 0.75-1.188 1.156-1.922 1.156zM17.594 12.719c1.219 0 1.828 0.734 1.937 1.906h-3.969c0.078-1.172 0.859-1.906 2.031-1.906zM15.062 8.563h4.984v1.203h-4.984v-1.203z"></path>
</symbol>
<symbol id="wosi-git-square" viewBox="0 0 24 28">
<title>git-square</title>
<path d="M9.094 20.438c0 0.844-0.766 1.031-1.453 1.031-0.672 0-1.672-0.109-1.672-0.984 0-0.859 0.844-1 1.531-1 0.656 0 1.594 0.109 1.594 0.953zM8.531 13.156c0 0.781-0.313 1.328-1.156 1.328-0.859 0-1.203-0.5-1.203-1.313s0.313-1.406 1.203-1.406c0.797 0 1.156 0.656 1.156 1.391zM11.125 11.984v-1.953c-0.672 0.25-1.391 0.453-2.109 0.453-0.516-0.297-1.109-0.453-1.719-0.453-1.781 0-3.187 1.313-3.187 3.125 0 0.969 0.641 2.312 1.609 2.641v0.047c-0.5 0.219-0.594 0.828-0.594 1.328 0 0.516 0.187 0.938 0.641 1.203v0.047c-1.062 0.344-1.766 1.016-1.766 2.172 0 1.984 1.891 2.547 3.547 2.547 2 0 3.5-0.734 3.5-2.938 0-1.563-1.422-2.031-2.719-2.266-0.438-0.078-1.188-0.391-1.188-0.938 0-0.516 0.281-0.734 0.766-0.812 1.594-0.313 2.609-1.547 2.609-3.187 0-0.281-0.063-0.547-0.156-0.812 0.25-0.063 0.516-0.125 0.766-0.203zM12.047 18.531h2.141c-0.031-0.422-0.031-0.859-0.031-1.281v-6.047c0-0.359 0-0.719 0.031-1.078h-2.141c0.047 0.359 0.047 0.75 0.047 1.109v6.125c0 0.391 0 0.781-0.047 1.172zM20 18.281v-1.891c-0.313 0.219-0.688 0.328-1.062 0.328-0.703 0-0.828-0.703-0.828-1.281v-3.516h0.812c0.281 0 0.547 0.031 0.828 0.031v-1.828h-1.641c0-0.531-0.031-1.062 0.047-1.594h-2.188c0.047 0.281 0.063 0.562 0.063 0.859v0.734h-0.938v1.828c0.187-0.016 0.375-0.047 0.578-0.047 0.109 0 0.234 0.016 0.359 0.016v0.031h-0.031v3.391c0 1.687 0.25 3.313 2.312 3.313 0.578 0 1.172-0.094 1.687-0.375zM14.438 7.25c0-0.734-0.547-1.422-1.313-1.422s-1.328 0.672-1.328 1.422c0 0.734 0.578 1.391 1.328 1.391s1.313-0.672 1.313-1.391zM24 6.5v15c0 2.484-2.016 4.5-4.5 4.5h-15c-2.484 0-4.5-2.016-4.5-4.5v-15c0-2.484 2.016-4.5 4.5-4.5h15c2.484 0 4.5 2.016 4.5 4.5z"></path>
</symbol>
<symbol id="wosi-git" viewBox="0 0 28 28">
<title>git</title>
<path d="M9.297 23.656c0-1.375-1.516-1.563-2.578-1.563-1.109 0-2.469 0.234-2.469 1.625 0 1.406 1.609 1.578 2.688 1.578 1.141 0 2.359-0.281 2.359-1.641zM8.375 11.859c0-1.172-0.562-2.234-1.859-2.234-1.437 0-1.937 0.953-1.937 2.266 0 1.297 0.562 2.109 1.937 2.109 1.359 0 1.859-0.875 1.859-2.141zM12.578 6.797v3.156c-0.406 0.141-0.812 0.25-1.234 0.344 0.156 0.422 0.25 0.859 0.25 1.313 0 2.641-1.625 4.656-4.219 5.141-0.781 0.156-1.234 0.484-1.234 1.328 0 2.391 6.312 0.766 6.312 5.172 0 3.578-2.422 4.75-5.672 4.75-2.672 0-5.719-0.891-5.719-4.109 0-1.875 1.141-2.953 2.844-3.516v-0.063c-0.719-0.438-1.047-1.125-1.047-1.969 0-0.797 0.172-1.781 0.984-2.141v-0.063c-1.578-0.531-2.609-2.703-2.609-4.281 0-2.922 2.266-5.063 5.156-5.063 0.969 0 1.937 0.25 2.781 0.734 1.172 0 2.328-0.313 3.406-0.734zM17.547 20.563h-3.469c0.063-0.703 0.063-1.391 0.063-2.094v-9.516c0-0.672 0.016-1.344-0.063-2h3.469c-0.078 0.641-0.063 1.297-0.063 1.937v9.578c0 0.703 0 1.391 0.063 2.094zM26.938 17.094v3.063c-0.828 0.453-1.781 0.609-2.719 0.609-3.344 0-3.734-2.641-3.734-5.359v-5.484h0.031v-0.063c-0.203 0-0.391-0.031-0.578-0.031-0.313 0-0.625 0.047-0.922 0.094v-2.969h1.5v-1.188c0-0.469-0.016-0.938-0.094-1.391h3.547c-0.125 0.859-0.094 1.719-0.094 2.578h2.672v2.969c-0.453 0-0.906-0.063-1.344-0.063h-1.328v5.703c0 0.922 0.203 2.047 1.359 2.047 0.609 0 1.203-0.172 1.703-0.516zM17.938 2.297c0 1.172-0.906 2.266-2.109 2.266-1.234 0-2.156-1.078-2.156-2.266 0-1.203 0.906-2.297 2.156-2.297 1.234 0 2.109 1.125 2.109 2.297z"></path>
</symbol>
<symbol id="wosi-facebook-official" viewBox="0 0 24 28">
<title>facebook-official</title>
<path d="M22.672 2c0.734 0 1.328 0.594 1.328 1.328v21.344c0 0.734-0.594 1.328-1.328 1.328h-6.109v-9.297h3.109l0.469-3.625h-3.578v-2.312c0-1.047 0.281-1.75 1.797-1.75l1.906-0.016v-3.234c-0.328-0.047-1.469-0.141-2.781-0.141-2.766 0-4.672 1.687-4.672 4.781v2.672h-3.125v3.625h3.125v9.297h-11.484c-0.734 0-1.328-0.594-1.328-1.328v-21.344c0-0.734 0.594-1.328 1.328-1.328h21.344z"></path>
</symbol>
<symbol id="wosi-pinterest-p" viewBox="0 0 20 28">
<title>pinterest-p</title>
<path d="M0 9.328c0-5.766 5.281-9.328 10.625-9.328 4.906 0 9.375 3.375 9.375 8.547 0 4.859-2.484 10.25-8.016 10.25-1.313 0-2.969-0.656-3.609-1.875-1.188 4.703-1.094 5.406-3.719 9l-0.219 0.078-0.141-0.156c-0.094-0.984-0.234-1.953-0.234-2.938 0-3.187 1.469-7.797 2.188-10.891-0.391-0.797-0.5-1.766-0.5-2.641 0-1.578 1.094-3.578 2.875-3.578 1.313 0 2.016 1 2.016 2.234 0 2.031-1.375 3.938-1.375 5.906 0 1.344 1.109 2.281 2.406 2.281 3.594 0 4.703-5.187 4.703-7.953 0-3.703-2.625-5.719-6.172-5.719-4.125 0-7.313 2.969-7.313 7.156 0 2.016 1.234 3.047 1.234 3.531 0 0.406-0.297 1.844-0.812 1.844-0.078 0-0.187-0.031-0.266-0.047-2.234-0.672-3.047-3.656-3.047-5.703z"></path>
</symbol>
<symbol id="wosi-medium" viewBox="0 0 28 28">
<title>medium</title>
<path d="M9.328 6.578v18.328c0 0.484-0.234 0.938-0.766 0.938-0.187 0-0.359-0.047-0.516-0.125l-7.266-3.641c-0.438-0.219-0.781-0.781-0.781-1.25v-17.813c0-0.391 0.187-0.75 0.609-0.75 0.25 0 0.469 0.125 0.688 0.234l7.984 4c0.016 0.016 0.047 0.063 0.047 0.078zM10.328 8.156l8.344 13.531-8.344-4.156v-9.375zM28 8.437v16.469c0 0.516-0.297 0.875-0.812 0.875-0.266 0-0.516-0.078-0.734-0.203l-6.891-3.437zM27.953 6.563c0 0.063-8.078 13.172-8.703 14.172l-6.094-9.906 5.063-8.234c0.172-0.281 0.484-0.438 0.812-0.438 0.141 0 0.281 0.031 0.406 0.094l8.453 4.219c0.031 0.016 0.063 0.047 0.063 0.094z"></path>
</symbol>
<symbol id="wosi-vimeo" viewBox="0 0 28 28">
<title>vimeo</title>
<path d="M26.703 8.094c-0.109 2.469-1.844 5.859-5.187 10.172-3.469 4.484-6.375 6.734-8.781 6.734-1.484 0-2.734-1.375-3.75-4.109-0.688-2.5-1.375-5.016-2.063-7.531-0.75-2.734-1.578-4.094-2.453-4.094-0.187 0-0.844 0.391-1.984 1.188l-1.203-1.531c1.25-1.109 2.484-2.234 3.719-3.313 1.656-1.469 2.922-2.203 3.766-2.281 1.984-0.187 3.187 1.156 3.656 4.047 0.484 3.125 0.844 5.078 1.031 5.828 0.578 2.594 1.188 3.891 1.875 3.891 0.531 0 1.328-0.828 2.406-2.516 1.062-1.687 1.625-2.969 1.703-3.844 0.141-1.453-0.422-2.172-1.703-2.172-0.609 0-1.234 0.141-1.891 0.406 1.25-4.094 3.641-6.078 7.172-5.969 2.609 0.078 3.844 1.781 3.687 5.094z"></path>
</symbol>
<symbol id="wosi-snapchat" viewBox="0 0 24 28">
<title>snapchat</title>
<path d="M19.984 17.938c0-0.219-0.125-0.375-0.344-0.422-1.422-0.313-2.5-1.297-3.094-2.609-0.047-0.125-0.109-0.25-0.109-0.391 0-0.703 1.953-0.562 1.953-1.563 0-0.422-0.516-0.688-0.891-0.688-0.359 0-0.641 0.25-0.984 0.25-0.063 0-0.125-0.016-0.187-0.031 0.031-0.594 0.078-1.188 0.078-1.781 0-0.547-0.031-1.297-0.266-1.781-0.75-1.625-2.203-2.578-3.984-2.578-1.953 0-3.437 0.719-4.297 2.578-0.234 0.484-0.266 1.234-0.266 1.781 0 0.594 0.047 1.188 0.078 1.781-0.063 0.031-0.141 0.031-0.219 0.031-0.359 0-0.641-0.234-0.969-0.234-0.391 0-0.875 0.25-0.875 0.688 0 0.969 1.953 0.844 1.953 1.547 0 0.141-0.063 0.266-0.109 0.391-0.609 1.313-1.656 2.297-3.094 2.609-0.219 0.047-0.344 0.203-0.344 0.422 0 0.719 1.656 0.984 2.141 1.062 0.141 0.375 0.078 1.031 0.641 1.031 0.391 0 0.781-0.141 1.203-0.141 1.641 0 2.078 1.484 3.984 1.484 1.984 0 2.359-1.484 4.016-1.484 0.422 0 0.812 0.125 1.219 0.125 0.547 0 0.484-0.656 0.625-1.016 0.484-0.078 2.141-0.344 2.141-1.062zM24 14c0 6.625-5.375 12-12 12s-12-5.375-12-12 5.375-12 12-12 12 5.375 12 12z"></path>
</symbol>
<symbol id="wosi-snapchat-ghost" viewBox="0 0 26 28">
<title>snapchat-ghost</title>
<path d="M13.25 2c2.812-0.031 5.141 1.547 6.312 4.078 0.359 0.766 0.422 1.953 0.422 2.797 0 1-0.078 1.984-0.141 2.984 0.125 0.063 0.297 0.109 0.438 0.109 0.562 0 1.031-0.422 1.594-0.422 0.531 0 1.297 0.375 1.297 1 0 1.5-3.141 1.219-3.141 2.531 0 0.234 0.094 0.453 0.187 0.672 0.75 1.641 2.172 3.219 3.859 3.922 0.406 0.172 0.812 0.266 1.25 0.359 0.281 0.063 0.438 0.266 0.438 0.547 0 1.062-2.703 1.5-3.422 1.609-0.313 0.484-0.078 1.625-0.906 1.625-0.641 0-1.281-0.203-1.969-0.203-0.328 0-0.656 0.016-0.969 0.078-1.859 0.313-2.484 2.312-5.531 2.312-2.938 0-3.641-2-5.453-2.312-0.328-0.063-0.656-0.078-0.984-0.078-0.703 0-1.375 0.234-1.937 0.234-0.875 0-0.609-1.156-0.938-1.656-0.719-0.109-3.422-0.547-3.422-1.609 0-0.281 0.156-0.484 0.438-0.547 0.438-0.094 0.844-0.187 1.25-0.359 1.672-0.688 3.125-2.281 3.859-3.922 0.094-0.219 0.187-0.438 0.187-0.672 0-1.313-3.156-1.062-3.156-2.516 0-0.609 0.719-1 1.266-1 0.484 0 0.969 0.406 1.578 0.406 0.172 0 0.344-0.031 0.5-0.109-0.063-0.984-0.141-1.969-0.141-2.969 0-0.844 0.063-2.047 0.422-2.812 1.375-2.969 3.703-4.047 6.813-4.078z"></path>
</symbol>
<symbol id="wosi-snapchat-square" viewBox="0 0 24 28">
<title>snapchat-square</title>
<path d="M20 17.938c0-0.219-0.125-0.375-0.344-0.422-1.422-0.297-2.5-1.297-3.094-2.609-0.063-0.125-0.109-0.25-0.109-0.391 0-0.703 1.937-0.562 1.937-1.563 0-0.422-0.516-0.688-0.891-0.688-0.344 0-0.625 0.25-0.984 0.25-0.063 0-0.125-0.016-0.187-0.031 0.047-0.594 0.078-1.203 0.078-1.797 0-0.531-0.031-1.281-0.266-1.781-0.75-1.625-2.187-2.578-3.984-2.578-1.953 0-3.437 0.734-4.297 2.578-0.234 0.5-0.281 1.25-0.281 1.797 0 0.594 0.047 1.188 0.094 1.781-0.078 0.016-0.156 0.031-0.234 0.031-0.344 0-0.641-0.25-0.969-0.25-0.391 0-0.859 0.266-0.859 0.703 0 0.969 1.937 0.844 1.937 1.547 0 0.141-0.047 0.266-0.109 0.391-0.609 1.313-1.656 2.297-3.094 2.609-0.219 0.047-0.344 0.203-0.344 0.422 0 0.734 1.656 1 2.156 1.078 0.141 0.375 0.078 1.031 0.625 1.031 0.406 0 0.797-0.156 1.203-0.156 1.656 0 2.094 1.484 4 1.484 1.984 0 2.359-1.484 4.031-1.484 0.406 0 0.812 0.141 1.219 0.141 0.531 0 0.484-0.656 0.609-1.016 0.5-0.078 2.156-0.344 2.156-1.078zM24 6.5v15c0 2.484-2.016 4.5-4.5 4.5h-15c-2.484 0-4.5-2.016-4.5-4.5v-15c0-2.484 2.016-4.5 4.5-4.5h15c2.484 0 4.5 2.016 4.5 4.5z"></path>
</symbol>
<symbol id="wosi-google-plus-circle" viewBox="0 0 24 28">
<title>google-plus-circle</title>
<path d="M14.328 14.141c0-0.344-0.031-0.672-0.094-1h-5.656v2.063h3.391c-0.25 1.656-1.813 2.578-3.391 2.578-2.078 0-3.734-1.719-3.734-3.781s1.656-3.781 3.734-3.781c0.875 0 1.75 0.297 2.391 0.922l1.625-1.578c-1.109-1.031-2.5-1.563-4.016-1.563-3.328 0-6 2.688-6 6s2.672 6 6 6c3.453 0 5.75-2.438 5.75-5.859zM19.719 14.859h1.703v-1.719h-1.703v-1.719h-1.719v1.719h-1.719v1.719h1.719v1.719h1.719v-1.719zM24 14c0 6.625-5.375 12-12 12s-12-5.375-12-12 5.375-12 12-12 12 5.375 12 12z"></path>
</symbol>
</defs>
</svg>
